<svg width="457" height="490" viewBox="0 0 457 490" fill="none" xmlns="http://www.w3.org/2000/svg">
<path d="M24 489.5C16.6667 489.833 11 488.5 7 485.5C2.66666 482.5 1.16666 476.833 2.5 468.5C2.5 467.5 2.83333 466 3.5 464C4.16666 462 5 460.667 6 460C5.66666 468.333 6.66666 474.167 9 477.5C11.3333 480.833 15.1667 482.5 20.5 482.5C33.5 482.5 46.8333 478.333 60.5 470C74.5 461.667 88.3333 450.5 102 436.5C98.6667 435.5 94.3333 433.5 89 430.5C84 427.833 80.1667 425.667 77.5 424C64.1667 414.333 57.5 403.167 57.5 390.5C57.5 380.833 61.8333 370.333 70.5 359C79.1667 347.667 93.3333 336.167 113 324.5C125.667 316.833 140.333 310 157 304C173.667 298 189.167 293.167 203.5 289.5C208.5 279.833 213.333 270.333 218 261C222.667 251.667 227.167 242.333 231.5 233C233.167 229.333 236.167 222.333 240.5 212C244.833 201.667 249.667 189.5 255 175.5C260.333 161.5 265.333 146.667 270 131C275 115 279.167 99.5 282.5 84.5C285.833 69.5 287.5 56.1667 287.5 44.5C287.5 33.1667 285.5 24.3333 281.5 18C277.833 11.6666 271.167 8.49998 261.5 8.49998H261C258.333 8.49998 257 7.66665 257 5.99999C257 4.33332 258.667 3.16665 262 2.49997C278 0.833307 289.167 4.66664 295.5 14C301.833 23.3333 305 35.6667 305 51C305 53.6667 304.833 56.5 304.5 59.5C304.5 62.5 304.333 65.6666 304 69C306 70.6666 307.333 73.5 308 77.5C310 88.1667 312 102.167 314 119.5C316.333 136.833 319 155.833 322 176.5C325 197.167 328.5 218.167 332.5 239.5C336.833 260.5 341.833 280.333 347.5 299C353.5 317.333 360.5 332.833 368.5 345.5C370.167 348.167 372.5 351.667 375.5 356C378.5 360 382.167 363.667 386.5 367C390.833 370.333 395.667 372 401 372C406.667 372 412.5 369.667 418.5 365C423.833 360.667 428.833 354.667 433.5 347C438.167 339.333 442.5 331.167 446.5 322.5C448.5 318.833 450.333 317 452 317C453.667 317 454.833 318 455.5 320C456.5 321.667 456.833 323.333 456.5 325C455.167 329.333 452.333 334.5 448 340.5C444 346.167 439.833 351.5 435.5 356.5C431.167 361.167 427.667 364.5 425 366.5C419 371.167 413.167 374.5 407.5 376.5C402.167 378.833 397.167 380 392.5 380C381.5 380 371.833 375.833 363.5 367.5C355.5 358.833 348.5 349.833 342.5 340.5C334.167 327.167 327.5 310.333 322.5 290C317.833 269.667 314.167 247.667 311.5 224C308.833 200.333 306.667 177 305 154C303.667 131 302.167 110 300.5 91C296.5 109.667 291 128.833 284 148.5C277 168.167 269.833 186.333 262.5 203C255.5 219.333 249.667 232 245 241C237.667 256 229.667 271 221 286C236.333 282.333 252.333 279 269 276C285.667 273 300.333 270.167 313 267.5H314.5C315.833 267.5 316.5 268 316.5 269C316.5 270 315.667 271.333 314 273C312.333 274.667 310.167 275.833 307.5 276.5C293.167 279.167 277.667 282.333 261 286C244.333 289.333 228.667 293 214 297C198.667 323.333 183.167 348.333 167.5 372C151.833 395.667 134.667 416.667 116 435C128.667 439 144.833 441 164.5 441H165.5C168.167 441 169.5 441.667 169.5 443C169.5 445 167.5 446 163.5 446C154.167 446.333 145 445.833 136 444.5C127 443.5 118.667 441.833 111 439.5C96.3333 453.833 81.5 465.333 66.5 474C51.8333 483 37.6667 488.167 24 489.5ZM107 431.5C123 414.833 138.5 395.333 153.5 373C168.833 350.667 183.167 327.333 196.5 303C192.167 304.333 187.667 305.833 183 307.5C178.333 309.167 173.833 311.167 169.5 313.5C163.833 316.167 156.167 320 146.5 325C136.833 330 127.167 335.333 117.5 341C108.167 346.333 101 351.167 96 355.5C89.3333 361.5 84.5 367.333 81.5 373C78.5 378.667 77 384.167 77 389.5C77 394.167 77.8333 398.667 79.5 403C81.5 407.333 83.8333 411.5 86.5 415.5C88.1667 417.5 91.1667 420.167 95.5 423.5C100.167 427.167 104 429.833 107 431.5Z" fill="#FD6E78"/>
</svg>
